HIERARCHY
ROOT Hips
{
	OFFSET 0.000000 0.000000 0.000000
	CHANNELS 6 Xposition Yposition Zposition Zrotation Yrotation Xrotation 
	JOINT LHipJoint
	{
		OFFSET 0.000000 0.000000 0.000000
		CHANNELS 3 Zrotation Yrotation Xrotation
		JOINT LeftUpLeg
		{
			OFFSET 1.363060 -1.794630 0.839290
			CHANNELS 3 Zrotation Yrotation Xrotation
			JOINT LeftLeg
			{
				OFFSET 2.448110 -6.726130 0.000000
				CHANNELS 3 Zrotation Yrotation Xrotation
				JOINT LeftFoot
				{
					OFFSET 2.562200 -7.039590 0.000000
					CHANNELS 3 Zrotation Yrotation Xrotation
					JOINT LeftToeBase
					{
						OFFSET 0.157640 -0.433110 2.322550
						CHANNELS 3 Zrotation Yrotation Xrotation
						End Site
						{
							OFFSET 0.000000 0.000000 0.000000
						}
					}
				}
			}
		}
	}
	JOINT RHipJoint
	{
		OFFSET 0.000000 0.000000 0.000000
		CHANNELS 3 Zrotation Yrotation Xrotation
		JOINT RightUpLeg
		{
			OFFSET -1.305520 -1.794630 0.839290
			CHANNELS 3 Zrotation Yrotation Xrotation
			JOINT RightLeg
			{
				OFFSET -2.542530 -6.985550 0.000000
				CHANNELS 3 Zrotation Yrotation Xrotation
				JOINT RightFoot
				{
					OFFSET -2.568260 -7.056230 0.000000
					CHANNELS 3 Zrotation Yrotation Xrotation
					JOINT RightToeBase
					{
						OFFSET -0.164730 -0.452590 2.363150
						CHANNELS 3 Zrotation Yrotation Xrotation
						End Site
						{
							OFFSET 0.000000 0.000000 0.000000
						}
					}
				}
			}
		}
	}
}
MOTION
Frames: 14
Frame Time: 0.008333
1.261917 17.288128 0.457214 175.435672 -48.267968 -160.583930 -8.341267 0.731813 1.116243 -15.213371 -5.916215 -28.479387 0.394785 1.191536 40.947677 5.953231 36.296289 -1.162047 6.158900 -0.000000 -41.793500 9.481467 -0.786671 6.182132 4.263896 23.488899 -24.775026 1.283565 -0.749274 19.099161 -1.018443 -3.225675 -6.235949 -0.399500 0.000000 -51.085100
1.284070 17.287950 0.449345 175.074018 -47.736151 -160.459302 -8.311900 0.599934 1.308771 -15.002824 -8.059558 -29.640682 0.626018 1.415800 44.630003 5.699306 35.468979 1.145669 7.362700 -0.000000 -43.583200 9.591503 -0.690622 6.041202 3.918252 23.653395 -24.666164 1.231529 -0.816900 19.520482 -0.998244 -3.105422 -6.299099 -0.376600 0.000000 -51.524300
1.304822 17.288333 0.444677 174.716500 -47.247779 -160.382011 -8.291473 0.463425 1.485548 -14.823988 -10.143790 -30.769782 0.848110 1.629403 48.275127 5.406021 34.295089 3.546834 8.382100 0.000000 -44.844600 9.697261 -0.591720 5.880899 3.596496 23.804538 -24.467098 1.183808 -0.883132 19.914792 -0.983526 -3.013527 -6.375266 -0.355099 0.000000 -51.905700
1.323971 17.289352 0.442498 174.356027 -46.796977 -160.342135 -8.276016 0.322928 1.647342 -14.698374 -12.149710 -31.853725 1.059219 1.830483 51.832394 5.095840 32.864480 5.996976 9.186200 -0.000000 -45.783000 9.801510 -0.492117 5.703374 3.295235 23.922777 -24.189237 1.141449 -0.948013 20.280830 -0.969241 -2.924459 -6.457437 -0.333900 0.000000 -52.255800
1.341437 17.291034 0.442066 173.991247 -46.377946 -160.332810 -8.263883 0.180479 1.792514 -14.641740 -14.041368 -32.896980 1.256117 2.020997 55.284598 4.785046 31.226216 8.367972 9.711401 0.000000 -45.973200 9.905247 -0.394964 5.514103 3.014406 23.994067 -23.849167 1.105376 -1.011054 20.614666 -0.951279 -2.817719 -6.535811 -0.312400 0.000000 -52.600799
1.357069 17.293442 0.442612 173.620983 -45.983643 -160.342239 -8.252746 0.036897 1.923390 -14.664757 -15.801179 -33.904515 1.439102 2.201388 58.606655 4.491210 29.483549 10.615487 9.987900 0.000000 -45.692300 10.010582 -0.302509 5.318002 2.748085 24.002288 -23.468675 1.075846 -1.071574 20.914796 -0.925427 -2.670987 -6.603072 -0.289900 0.000001 -52.953000
1.370782 17.296616 0.443333 173.243784 -45.607322 -160.354437 -8.241319 -0.108742 2.045619 -14.766948 -17.421732 -34.897969 1.610051 2.371622 61.788585 4.231799 27.768966 12.735328 10.093100 0.000000 -45.240500 10.118321 -0.216796 5.122210 2.489913 23.934921 -23.078504 1.052495 -1.128042 21.177739 -0.888121 -2.465339 -6.649113 -0.266300 0.000000 -53.350501
1.382925 17.300543 0.443547 172.855814 -45.242389 -160.358649 -8.228027 -0.253977 2.159671 -14.947884 -18.888909 -35.886939 1.769821 2.534178 64.828573 4.010144 26.132967 14.667689 10.053600 0.000000 -44.792500 10.230624 -0.138772 4.931414 2.231260 23.785737 -22.697973 1.034343 -1.180024 21.405141 -0.837517 -2.189049 -6.671787 -0.241201 -0.000000 -53.766100
1.393105 17.305217 0.442844 172.466669 -44.885547 -160.345211 -8.214613 -0.398932 2.270278 -15.192082 -20.200077 -36.903110 1.922229 2.690925 67.745304 3.831041 24.653798 16.380491 9.924801 -0.000000 -44.228100 10.345523 -0.070259 4.753492 1.968776 23.555287 -22.355123 1.020835 -1.225678 21.593683 -0.772829 -1.836668 -6.664701 -0.214900 -0.000001 -54.234700
1.401766 17.310612 0.440787 172.071447 -44.532128 -160.305392 -8.199051 -0.542370 2.379051 -15.490946 -21.362446 -37.951442 2.069669 2.842546 70.534827 3.692995 23.375161 17.892092 9.764900 0.000000 -44.154900 10.465033 -0.010347 4.590833 1.691640 23.246478 -22.061694 1.010250 -1.264921 21.747522 -0.694493 -1.407589 -6.629812 -0.186900 0.000001 -54.725300
1.409172 17.316641 0.437160 171.671977 -44.181469 -160.234407 -8.182517 -0.682849 2.486229 -15.828361 -22.377883 -39.049905 2.216081 2.991968 73.219120 3.589556 22.297100 19.155965 9.584200 0.000000 -44.330899 10.587788 0.041147 4.447752 1.397574 22.872795 -21.828165 1.001341 -1.297123 21.867157 -0.604833 -0.911926 -6.568791 -0.157400 -0.000000 -55.227500
1.415609 17.323255 0.431863 171.267798 -43.833641 -160.129435 -8.164864 -0.819260 2.591257 -16.191268 -23.256083 -40.204734 2.364920 3.140734 75.808074 3.513625 21.407161 20.167115 9.396800 0.000000 -44.861000 10.713247 0.085411 4.325981 1.082851 22.450899 -21.655703 0.992606 -1.322318 21.954764 -0.506999 -0.364570 -6.485362 -0.126600 -0.000000 -55.724600
1.421450 17.330414 0.425045 170.860244 -43.490430 -159.992997 -8.146056 -0.950137 2.691543 -16.570696 -24.005593 -41.416764 2.519790 3.290712 78.312645 3.455410 20.659628 20.907466 9.191100 0.000000 -45.628699 10.840714 0.123913 4.225936 0.744827 22.001891 -21.538116 0.982617 -1.341093 22.013587 -0.405036 0.213769 -6.384647 -0.094800 0.000000 -56.189000
1.427011 17.338022 0.416819 170.448940 -43.154094 -159.827276 -8.126104 -1.075061 2.784754 -16.957032 -24.639431 -42.682898 2.683288 3.442617 80.739535 3.407035 20.009482 21.395059 8.960400 0.000000 -46.676201 10.968714 0.158235 4.146539 0.385962 21.546372 -21.463198 0.970358 -1.353679 22.041830 -0.303113 0.800273 -6.271305 -0.062700 0.000001 -56.636300
